<svg id="Circulo" data-name="Circulo 1" xmlns="http://www.w3.org/2000/svg" ><defs><style>.cls-1{fill:#fafafa;}</style></defs><path d="M33.8874 36.19C32.8308 36.192 31.7974 35.8805 30.9179 35.2949C30.0384 34.7094 29.3524 33.8761 28.9467 32.9005C28.541 31.9249 28.4338 30.8509 28.6387 29.8144C28.8437 28.7778 29.3515 27.8254 30.0979 27.0776C30.8443 26.3298 31.7958 25.8202 32.8319 25.6134C33.868 25.4065 34.9422 25.5117 35.9186 25.9155C36.8949 26.3194 37.7295 27.0038 38.3167 27.8822C38.9039 28.7606 39.2174 29.7934 39.2174 30.85C39.2147 32.2637 38.6526 33.6189 37.6539 34.6195C36.6552 35.6201 35.3011 36.1847 33.8874 36.19V36.19ZM33.8874 27.02C33.127 27.018 32.3832 27.2418 31.7502 27.663C31.1172 28.0842 30.6235 28.6838 30.3316 29.3859C30.0397 30.0879 29.9628 30.8609 30.1107 31.6067C30.2585 32.3525 30.6244 33.0376 31.1621 33.5753C31.6997 34.1129 32.3849 34.4788 33.1307 34.6267C33.8765 34.7745 34.6494 34.6977 35.3515 34.4058C36.0536 34.1139 36.6532 33.6202 37.0744 32.9871C37.4956 32.3541 37.7193 31.6103 37.7174 30.85C37.7174 29.8333 37.3142 28.8581 36.5962 28.1382C35.8782 27.4184 34.9041 27.0127 33.8874 27.01V27.02Z" fill="blue"></path></svg>